<?xml version="1.0" encoding="UTF-8"?><svg id="Layer_1" xmlns="http://www.w3.org/2000/svg" viewBox="0 0 913.94098 403.9465"><path d="M404.44104,120.36592l-24.92236,83.29718-24.9223-83.29718h-32.58032l5.21387,15.19904c-5.61243-9.48169-17.78314-16.73969-43.86615-16.73969-44.58832,0-53.77557,22.73602-53.77557,40.4422h28.42279c0-3.93097.43048-16.39215,22.73596-16.39215,17.70618,0,21.63708,6.11731,21.63708,15.51984v4.15753l-41.31439,6.34381h-.01135c-8.04846,1.1734-25.22772,5.19336-32.79431,19.33624.37976-3.60028.57654-7.28119.57654-11.02124,0-12.03064-2.18634-23.17773-7.00092-32.58026-7.4314-14.86279-21.63715-25.79462-45.47192-25.79462-13.54871,0-25.56805,5.01843-32.56897,12.01935v-10.49005h-29.51031v161.77985h29.51031v-50.71692c6.77435,6.55908,16.17688,10.27478,29.51031,10.27478,28.15271,0,44.25641-15.00592,51.27368-36.0144.7428,23.04889,17.5542,36.00305,40.63306,36.00305,16.83392,0,29.73688-5.01843,38.04059-13.54871v12.01941h30.16736s-1.52936-7.65796-1.52936-16.83392v-66.02142c0-3.29895-.14514-6.74115-.68823-10.15173l31.90912,93.01837-2.18634,7.87323c-1.75592,6.55908-5.24506,8.30365-11.58887,8.30365h-17.70624v25.79462h24.71844c20.323,0,27.76575-9.8443,33.88306-28.20758l45.03009-133.57227h-30.82434ZM169.37812,216.99654c-10.71661,0-17.9328-4.81458-21.64844-11.58887-3.93097-7.00092-3.93097-16.39215-3.93097-25.57928,0-12.24591,1.97113-21.64844,7.00092-27.76575,4.58795-5.68683,11.80414-8.74548,21.20667-8.74548,22.95117,0,26.66687,20.10779,26.66687,35.19714,0,21.43311-7.4314,38.48224-29.29504,38.48224ZM295.39447,210.65267c-4.58795,4.58795-13.11823,8.08844-22.73596,8.08844-16.39209,0-17.70618-11.14709-17.70618-14.43231,0-4.37274,1.74457-7.64661,4.58795-9.83301,3.27393-2.61682,7.86188-3.7157,12.67645-4.58795,9.40247-1.75592,30.1673-4.81458,30.1673-4.81458v6.34387h.01135c0,5.68683-1.31409,13.33344-7.00092,19.23553Z"/><polygon points="594.42847 69.22994 571.14374 138.80965 494.28229 138.68111 517.56574 69.1053 517.55445 69.09395 480.34082 69.03731 423.64252 238.50905 460.85608 238.56569 484.74408 167.18331 561.60553 167.31185 537.71888 238.69026 575.20429 238.75826 631.91394 69.29787 594.42847 69.22994"/><path d="M686.58448,212.21596v-.01129c-8.45093-.02264-15.66711-1.74457-21.64844-5.17706-5.80011-3.4325-10.11621-8.40564-12.93695-14.91943-2.80945-6.68372-3.78369-14.6474-2.94537-23.8913.78168-8.56427,2.7301-17.12848,5.8454-25.68134,3.1153-8.56427,7.25012-16.3468,12.3819-23.35907,5.31299-7.01221,11.48694-12.56311,18.5105-16.66394,7.22748-4.27081,15.32727-6.38922,24.32196-6.37787,8.45087.02264,15.57642,1.74457,21.37653,5.17706,5.80005,3.4325,10.02563,8.40564,12.66504,14.91943,2.8208,6.50244,3.8064,14.4776,2.94531,23.89142-.78149,8.56421-2.72998,17.12842-5.84534,25.68134-2.33008,6.80133-5.37854,13.0968-9.10052,18.91583l27.05298,21.55786c6.49207-7.80133,11.76727-16.46497,15.79474-26.01886,5.24487-12.15515,8.49609-25.08081,9.74231-38.77673,1.4386-15.7464-.74768-29.19312-6.57043-40.34021s-14.30774-19.63202-25.46606-25.47742c-10.97729-5.8454-23.65363-8.77942-38.04059-8.80212-14.93079-.02264-28.57007,2.60553-40.91797,7.89587-12.15527,5.12036-22.69061,12.2912-31.62866,21.5238-8.73413,9.06268-15.72375,19.66595-20.96875,31.82129-5.2337,11.98535-8.47357,24.91101-9.74237,38.77686-1.43872,15.74628.74762,29.19299,6.57043,40.34009,5.99268,11.14709,14.56824,19.63202,25.72662,25.47742,11.33966,5.84546,24.10669,8.77948,38.31244,8.80212h.01135c14.91943.034,28.45673-2.51489,40.61206-7.63531.60968-.26489,1.20386-.54761,1.80273-.82489l-27.40582-21.83899c-3.32373.67444-6.80524,1.02002-10.45502,1.01544Z"/><polygon points="728.30408 186.53951 672.79529 186.53951 745.29657 244.31398 800.80542 244.31398 728.30408 186.53951"/><path d="M667.57593,204.0594c5.33234,3.05322,11.94165,4.612,19.64417,4.63263l.87964.00482c1.93372-.03058,3.83295-.18176,5.69019-.42761-8.82947-7.10431-24.36969-19.24237-24.36969-19.24237l-9.70312,7.9704c2.12091,2.86353,4.72144,5.20166,7.85883,7.06213Z"/><path d="M506.10853,330.20426h-4.66734v-8.74692l-11.20157-15.03917h5.39333l8.2975,11.13244,8.22833-11.13244h5.42792l-11.47817,15.03917v8.74692Z"/><path d="M468.79258,330.20426h-18.94482v-23.78609h18.94482c4.97849,0,6.70713,1.38291,6.70713,6.08481v1.48663c0,2.31638-1.07067,3.561-3.14506,3.90673,2.07438.27658,3.69821,1.55578,3.69821,4.42532v1.55578c0,4.90934-2.14352,6.32682-7.26029,6.32682ZM471.42013,323.32427v-.86432c0-1.76321-.5186-2.38552-2.45467-2.38552h-14.45144v5.4625h14.27857c2.0398,0,2.62754-.62231,2.62754-2.21266ZM470.86802,314.05876v-.89889c0-1.5212-.55425-2.0398-2.07544-2.0398h-14.27857v5.15135h14.31422c1.48555,0,2.0398-.58774,2.0398-2.21266Z"/><path d="M399.96893,330.20426h-20.01766v-23.78609h20.01766c5.77365,0,7.46771,1.9015,7.46771,7.70974v8.36662c0,5.8428-1.69406,7.70974-7.46771,7.70974ZM402.76934,322.52909v-8.36662c0-2.35095-.76061-3.04241-2.80041-3.04241h-15.31577v14.41686h15.31577c2.10894,0,2.80041-.65689,2.80041-3.00783Z"/><path d="M362.50604,330.20426h-22.85262v-23.78609h22.85262v4.7019h-18.1853v5.25507h17.66671v3.83758h-17.66671v5.32421h18.1853v4.66733Z"/><path d="M322.97852,330.20426h-6.56884l-8.22833-7.77888h-7.5023v7.77888h-4.70191v-23.78609h19.42993c5.04763,0,6.81084,1.97065,6.81084,7.36401v1.45206c0,5.80823-2.17809,7.122-8.05547,7.122l8.81607,7.84803ZM317.58516,315.71825v-1.1409c0-2.31638-.27658-3.42271-2.31638-3.42271h-14.58972v7.36401h14.58972c1.65949,0,2.31638-.72603,2.31638-2.8004Z"/><path d="M278.53192,330.20426h-22.85262v-23.78609h22.85262v4.7019h-18.1853v5.25507h17.66671v3.83758h-17.66671v5.32421h18.1853v4.66733Z"/><path d="M230.43251,330.20426h-5.04763l-6.3614-17.70128-6.53426,17.70128h-5.01307l-8.74691-23.78609h5.32421l6.08482,18.25444,6.53426-18.25444h4.70191l6.39597,18.28901,6.25768-18.28901h5.32421l-8.91979,23.78609Z"/><path d="M176.39283,330.20426h-12.54993c-5.77366,0-7.43316-1.86693-7.43316-7.70974v-8.36662c0-5.84281,1.65949-7.70974,7.43316-7.70974h12.54993c5.66994,0,7.43315,1.86693,7.43315,7.70974v8.36662c0,5.8428-1.76321,7.70974-7.43315,7.70974ZM179.15865,322.52909v-8.36662c0-2.35095-.72603-3.04241-2.8004-3.04241h-12.51536c-2.07437,0-2.8004.69146-2.8004,3.04241v8.36662c0,2.35095.65688,3.00783,2.8004,3.00783h12.51536c2.14352,0,2.8004-.65689,2.8004-3.00783Z"/><path d="M132.12796,322.49452h-13.17223v7.70974h-4.66733v-23.78609h17.83956c5.46251,0,7.19114,1.72864,7.19114,7.22572v2.14351c0,4.87477-1.72864,6.70713-7.19114,6.70713ZM134.68635,315.82197v-2.17809c0-1.86693-.69146-2.52382-2.55839-2.52382h-13.17223v7.122h13.17223c1.86693,0,2.55839-.72603,2.55839-2.4201Z"/><path d="M599.8161,315.18791c0-13.17247,11.43925-21.7233,29.06082-21.7233,17.73637,0,29.11876,8.55085,29.11876,21.7233,0,13.28814-11.38239,21.89645-29.11876,21.89645-17.62157,0-29.06082-8.60831-29.06082-21.89645ZM628.87692,325.64489c9.18594,0,15.02152-4.1596,15.02152-10.45698,0-6.23963-5.83558-10.34159-15.02152-10.34159-9.128,0-14.9056,4.10196-14.9056,10.34159,0,6.29738,5.83447,10.45698,14.9056,10.45698Z"/><path d="M705.83654,318.30783c5.60479-1.67541,8.7244-5.43097,8.7244-11.1507,0-8.37717-5.66162-12.71011-17.04286-12.71011h-33.79821v41.48193h13.57655v-30.6206h16.9861c3.63913,0,6.12431.63574,6.12431,3.98657s-2.48518,4.04432-6.12431,4.04432h-3.49362l-12.19643,10.86159h17.59659c3.69707,0,4.73735,1.09777,4.73735,4.79534v6.93278h13.57652v-9.12831c0-5.08422-3.35033-8.14617-8.66639-8.4928Z"/><path d="M570.57451,308.37086l-1.67575,15.07042,14.02224,12.48892h19.83277l-32.17925-27.55934Z"/><path d="M564.43425,310.9128v-16.46564h-13.5777v41.4819h13.5777v-25.01626Z"/><path d="M582.30253,318.41584l-13.40377,5.02533,4.5839-12.57612,8.81988,7.55079Z"/><path d="M602.75377,294.44702l-33.85501,28.99426v-16.50539l14.02224-12.48888h19.83277Z"/><path d="M757.76789,294.50294h-43.40819l12.13273,10.8054h5.7299v30.62049h13.54016v-30.62049h12.0054v-10.8054Z"/></svg>